<svg xmlns="http://www.w3.org/2000/svg" xmlns:xlink="http://www.w3.org/1999/xlink" viewBox="0 0 72.25 85" fill="#fff" fill-rule="evenodd" stroke="#000" stroke-linecap="round" stroke-linejoin="round"><use xlink:href="#A" x="2.125" y="2.5"/><symbol id="A" overflow="visible"><g stroke="none"><path d="M12.802 15.362l1.239 5.567c.155 1.392-2.789 4.484-2.789 6.03s.619 4.33 4.029 5.722 3.874 4.948 3.874 7.113-1.239 6.339-1.239 6.339-.775 10.36 3.409 12.215 3.254 1.855 4.183 1.855 7.747 2.785 11.776 1.702 5.113-2.319 5.113-2.319 4.029.309 5.268-3.247 2.014-10.977 1.549-14.379-1.085-7.885 1.704-9.432 5.733-3.402 5.268-4.947-2.944-3.711-2.944-3.711-.62-3.864-.157-4.792 3.254-3.247 1.704-4.947-4.34-1.7-4.34-1.7l-3.562.308s-6.041-5.413-13.945-5.104c-7.898.309-12.858 5.102-12.858 5.102s-2.634-.928-4.958 0-2.789 0-2.324 2.628z" fill="#fba919"/><g fill="#e78724"><path d="M26.961 38.384l-5.32 8.005c-.348.514 2.251.55 2.251.55l3.069-8.554zm1.461-9.707L26.99 32.2c-.55 1.327-2.647 1.987-2.647 1.987s1.087-1.138 1.087-4.02c0-1.208 1.564-1.689 1.564-1.689l1.428.2z"/><path d="M27.487 29.979s-1.895 2.251-5.414.991-3.881-5.763-3.881-7.024 6.678 1.261 7.581 1.801 2.616 2.701 1.714 4.232zM14.194 5.925s3.249-.631 5.414 1.08 2.797 3.062 2.797 3.062l-3.65 2.887s-1.764-.816-2.306-3.158-.18-3.421-2.256-3.872z"/><path d="M26.54 23.477c-1.399-1.981-3.704-2.845-5.544-2.989-3.138-.245-4.628.862-4.628.862s5.139.217 6.621 2.159c2.758 3.613 6.781 3.907 7.424 3.113-.744.037-1.562-.331-2.438-1.157-.547-.517-.991-1.359-1.435-1.988zm-8.676 7.005s-5.702-1.956-4.619-3.937.221-3.061.221-3.061-3.184 2.372-2.373 4.893c.499 1.547 1.335 2.668 5.929 4.815 2.203 4.083.455 11.434.56 11.468.174.057 3.093-1.44 2.894-8.317-.061-2.113-.229-4.994-2.611-5.864zm7.473-21.034l-5.667 2.9 1.289.643c-.123.199-.182.318-.182.318l1.322.6 5.209 3.836c-.66-2.027-2.598-5.213-2.598-5.213s-.55-1.464.624-3.085zm7.943 49.408c-7.349 0-9.838-3.723-9.838-3.723l1.149 2.791c.434 1.207 5.065 4.964 8.679 4.964"/><path d="M24.247 52.617s.676 4.124 3.383 4.124c2.301 0 2.979-3.483 2.979-4.203l-6.362.079zm-4.506-6.218c.241-.661 1.083-3.332 1.353-5.763.323-2.912.206-7.17.206-7.17s-.722 2.791-1.356 3.243-1.806 3.511-1.806 3.511l-.928 6.09c.828.165 1.524-.321 2.526.09zm-6.538-18.066s1.534-.541 1.986-3.872-.542-6.214-.542-6.214.09 4.593-.451 5.493-.993 1.17-1.625 2.341.27 1.891.632 2.251z"/></g><path d="M15.034 6.712l-.313-.198c-.923.031.313.198.313.198z" fill="#fdc168"/><path d="M26.585 8.461s-1.444-.24-2.166-1.32-2.768-3.242-6.028-3.266-6.486.865-6.486.865l2.816 1.774 1.68.023c3.534.117 4.078 3.604 4.078 3.604l12.455-1.711" fill="#fba919"/><path d="M27.788 27.725s-1.685 1.681-4.272 1.14-4.152-1.681-4.272-3.662.542-2.761.542-2.761 2.889.902 4.273 2.102 2.407 3.123 3.731 3.183z"/><path d="M25.749 27.125s-1.461.666-3.094.123c-2.138-.711-2.28-2.93-2.28-2.93s-1.311 3.841 2.366 4.58c2.949.593 4.694-1.112 4.694-1.112l-1.684-.66z" fill="#c9c9c9"/><g fill="#463014"><path d="M26.788 7.647c-.157-3.294 2.548-5.917 3.486-6.028.052.558-.052 2.735.885 3.404.273-1.778 1.196-3.738 4.839-5.023-.78 2.065-.104 3.795.218 4.597 2.488-2.254 4.165-1.881 4.165-1.881s-1.729 2.977-1.053 4.93c-4.995-.391-12.516.53-12.54.001zm-10.59 5.017c-1.192-.987-.303-1.902-.398-3.023-.051-.596-.098-1.159-.296-1.47-1.097-1.728-3.684-2.252-3.71-2.258l-1.214-.237.804-.938c.104-.121 3.406-3.264 8.515-1.619 3.574 1.15 6.219 5.05 6.317 5.208l-1.791.841c-.021-.033-2.112-3.699-5.177-4.685-2.477-.798-4.761-.039-5.741.459 1.04.414 2.4 1.169 3.22 2.46.388.609.452 1.377.514 2.12.083.984.161 1.913.887 2.514l-1.929.629zm-3.183 14.402s1.501-1.858 1.946-5.473c.175-1.424-.136-4.233-.632-5.313.09 2.657-.587 5.313-.587 5.313s-.456 4.933-.726 5.473z"/><path d="M20.933 10.788c-.001-.004-.482-2.101-1.815-3.16-1.881-1.493-4.178-.699-4.201-.692l-.333-1.028c.112-.036 2.738-.861 5.157.836 2.434 1.707 2.727 3.254 2.751 3.425l-1.558.62zm-3.202 14.946s-.788-1.125-.646-2.363c.07-.611.354-1.239.861-1.461.942-.411 1.36.653 1.36.653s-1.326.326-1.573 3.172z"/><path d="M26.38 27.448l.05.096s-2.457 1.84-4.975-.027c-1.348-1-1.221-3.474-.808-4.523a8.12 8.12 0 0 1 2.746 1.192l-1.802-1.502-1.094-.309-2.125-.726c-.027.162-.802 3.789 1.435 6.258.992 1.096 5.642 3.549 7.849-.645l-1.276.191z"/><path d="M26.15 27.718c1.383 2.101 4.874.9 4.814-1.321 0 0-2.332 1.284-4.393-1.08-1.203-1.379-5.058-5.187-10.285-3.921 3.61.792 8.389 4.083 9.864 6.325zm-10.352 5.93c.333.192 1.506 1.405 1.507 3.219 0 .909-.091 5.479-.542 8.271.679.44 1.152.534 1.827.982.338-3.233.581-7.919.468-9.811-.129-2.157-1.286-3.604-2.358-4.221l-1.04-.573c-1.838-.991-3.738-2.016-3.738-3.766 0-1.369.533-1.798 1.099-2.251l.06-.049c.374-.302.8-.645 1.051-1.207.686-1.538.798-5.457 0-6.452-.397-.496-1.464-2.164-1.157-3.283.117-.428.388-.745.826-.97.465-.238 1.093-.359 1.866-.359 1.518 0 3.203.46 4.071.736 3.105.981 6.851 3.811 7.925 4.657l.053.04.686.477-.429-.719c-.026-.045-2.748-4.511-7.615-6.149-.947-.319-2.806-.853-4.635-.853-1.087 0-2.012.189-2.744.562-.891.455-1.494 1.181-1.745 2.098-.615 2.249 1.388 4.753 1.456 4.834.234.415.333 3.434-.206 4.643-.074.166-.276.33-.535.538l-.267.204c-.76.572-1.91 1.438-1.91 3.432 0 2.728 2.774 4.21 5.001 5.398l1.031.562z"/><path d="M16.198 12.664c-1.192-.987-.303-1.902-.398-3.023-.051-.596-.098-1.159-.296-1.47-1.097-1.728-3.684-2.252-3.71-2.258l-1.214-.237.804-.938c.104-.121 3.406-3.264 8.515-1.619 3.574 1.15 6.219 5.05 6.317 5.208l-1.791.84c-.021-.033-2.112-3.699-5.177-4.685-2.477-.798-4.761-.039-5.741.458 1.04.414 2.4 1.169 3.22 2.46.388.609.452 1.377.514 2.12.083.984.161 1.913.887 2.514l-1.929.629z"/><path d="M16.16 12.865l-.077-.064c-.884-.73-.727-1.453-.575-2.149.069-.321.142-.655.112-.996-.048-.574-.095-1.115-.268-1.389-1.044-1.645-3.568-2.172-3.593-2.177l-1.517-.298 1.006-1.172c.019-.021 2.139-2.157 5.728-2.157a9.67 9.67 0 0 1 2.978.485c3.729 1.2 6.391 5.243 6.416 5.283l.108.172-2.12.996-.085-.134c-.227-.387-2.237-3.694-5.081-4.609-.698-.226-1.433-.34-2.186-.34-1.361 0-2.466.372-3.054.619.983.442 2.173 1.185 2.927 2.372.41.647.477 1.436.541 2.198.079.949.155 1.842.823 2.394l.252.208-2.333.764z"/><path d="M20.933 10.788c-.001-.004-.482-2.101-1.815-3.16-1.881-1.493-4.178-.699-4.201-.692l-.333-1.028c.112-.036 2.738-.861 5.157.836 2.434 1.707 2.727 3.254 2.751 3.425l-1.558.62z"/><path d="M20.803 11.032l-.047-.206c-.005-.02-.477-2.046-1.752-3.058-.727-.577-1.604-.87-2.604-.87a4.85 4.85 0 0 0-1.425.208l-.172.058-.446-1.372.172-.055c.077-.025.773-.242 1.76-.242 1.301 0 2.53.381 3.557 1.102 2.496 1.751 2.8 3.368 2.827 3.547l.023.142-1.887.751zm-4.403-4.495c1.069 0 2.048.328 2.829.948 1.133.9 1.665 2.489 1.827 3.059l1.227-.488c-.111-.432-.6-1.73-2.647-3.166-.979-.687-2.105-1.035-3.349-1.035-.682 0-1.212.108-1.474.174l.221.683a5.38 5.38 0 0 1 1.366-.175zm11.116 49.214a2.28 2.28 0 0 1-1.455-.519c-.289-.248-1.265-1.143-1.696-2.24-.161-.41-.125-.738.108-.974.161-.162.494-.355 1.171-.355h.482l2.367-.001h.792c.516 0 .885.111 1.097.328.272.279.185.636.11.823-.132.328-.681 1.396-1.611 2.387-.333.357-.817.553-1.363.553zm.559-27.909l-1.925-.124s.492.866.811 1.985c.36 1.266-.329 3.117-.329 3.117s2.567-2.9 1.443-4.979zm-2.403 32.982c-6.852-.525-9.263-6.986-9.263-8.332h1.79-.895.895c.009.583 1.83 6.109 7.611 6.553l-.137 1.781z"/></g><path d="M23.746 49.248c-.107-.618-.118-1.203.013-1.779-.521-.391-1.455-.536-2.156-.764-.575-.362-3.508.37-5.637-2.2-2.668-3.219-2.106-5.142-2.106-5.142-.684.758-1.346.468-2.39 4.004s.49 6 3.349 8.474c1.35 1.168 3.26 1.649 4.901 1.834-.55-.551.94-.607 1.967-.99-.083-.828.055-1.63.673-2.277.373-.391.853-.623 1.35-.809l.078-.185-.044-.174z"/><path d="M21.675 52.67c-.059-.174-.104-.351-.148-.529-.047-.194-.284-.746.008-.117a2.33 2.33 0 0 1-.16-.494c-4.629-.006-8.657-3.177-7.878-9.845-.605-.803-1.454 1.619-1.454 1.619s-2.316 6.715 3.668 9.317c1.995.868 3.757 1.49 4.173 1.239.866.175 1.649-.427 1.942-.823a4.66 4.66 0 0 1-.148-.367z" fill="#c9c9c9"/><g fill="#463014"><path d="M23.663 48.281a3.7 3.7 0 0 1 .395-1.651l.062-.11c-1.781-.015-3.833-.185-5.58-.883-1.919-.767-4.321-3.389-4.735-6.469 0 0-3.615 2.785-2.553 8.745.996 5.597 5.69 7.421 11.043 7.73.004-.036-.601-1.283-.41-2.046-3.039.221-6.438-.951-8.078-3.645-1.501-2.464-1.08-6.674-.463-7.291 1.507 4.742 6.924 5.706 10.322 5.623z"/><path d="M24.224 44.887c-.963 2.821-2.931 5.103-2.931 5.103s2.707-.124 2.856-.602c.111-.353 2.444-5.802 3.339-12.187-.842 1.381-3.182 7.441-3.264 7.683z"/></g><g fill="#e78724"><path d="M39.558 38.384l5.32 8.005c.348.514-2.252.55-2.252.55l-3.068-8.554zm-1.462-9.707l1.431 3.523c.55 1.327 2.647 1.987 2.647 1.987s-1.087-1.138-1.087-4.02c0-1.208-1.564-1.689-1.564-1.689l-1.426.2z"/><path d="M39.031 29.979s1.895 2.251 5.415.991 3.88-5.763 3.88-7.024-6.678 1.261-7.581 1.801-2.617 2.701-1.715 4.232zM52.324 5.925s-3.249-.631-5.415 1.08-2.798 3.062-2.798 3.062l3.649 2.887s1.764-.816 2.305-3.158.18-3.421 2.256-3.872z"/><path d="M39.978 23.477c1.399-1.981 3.703-2.845 5.544-2.989 3.138-.245 4.627.862 4.627.862s-5.139.217-6.621 2.159c-2.758 3.613-6.78 3.907-7.423 3.113.743.037 1.562-.331 2.437-1.157.547-.517.991-1.359 1.433-1.988zm8.676 7.005s5.702-1.956 4.619-3.937-.222-3.062-.222-3.062 3.185 2.372 2.373 4.892c-.499 1.547-1.335 2.668-5.929 4.815-2.205 4.083-.456 11.434-.56 11.468-.176.057-3.093-1.44-2.895-8.317.061-2.111.229-4.994 2.611-5.864zM41.182 9.448l5.666 2.9-1.288.643c.123.199.184.318.184.318l-1.322.6-5.209 3.836c.66-2.027 2.596-5.213 2.596-5.213s.55-1.464-.624-3.085zm-7.943 49.408c7.348 0 9.837-3.723 9.837-3.723l-1.148 2.791c-.434 1.207-5.066 4.964-8.678 4.964"/><path d="M42.272 52.617s-.677 4.124-3.383 4.124c-2.3 0-2.978-3.483-2.978-4.203l6.362.079zm4.505-6.218c-.241-.661-1.083-3.332-1.354-5.763-.325-2.912-.206-7.17-.206-7.17s.722 2.791 1.353 3.243 1.805 3.511 1.805 3.511l.928 6.09c-.828.165-1.524-.321-2.526.09zm6.539-18.066s-1.535-.541-1.986-3.872.542-6.214.542-6.214-.091 4.593.45 5.493.993 1.17 1.624 2.341-.272 1.891-.632 2.251z"/></g><path d="M51.484 6.712l.314-.198c.923.031-.314.198-.314.198z" fill="#fdc168"/><path d="M39.932 8.461s1.444-.24 2.166-1.32 2.768-3.242 6.029-3.266 6.486.865 6.486.865l-2.815 1.774c-.298-.009-.819-.006-1.681.023-3.533.117-4.077 3.604-4.077 3.604L33.586 8.428" fill="#fba919"/><path d="M38.73 27.725s1.685 1.681 4.271 1.14 4.152-1.681 4.272-3.662-.541-2.761-.541-2.761-2.888.902-4.272 2.102-2.406 3.123-3.73 3.183z"/><path d="M40.768 27.125s1.462.666 3.094.123c2.139-.711 2.281-2.93 2.281-2.93s1.311 3.841-2.366 4.58c-2.949.593-4.693-1.112-4.693-1.112l1.684-.66z" fill="#c9c9c9"/><g fill="#463014"><path d="M50.32 12.664c1.192-.987.304-1.902.398-3.023.05-.596.097-1.159.295-1.47 1.097-1.728 3.684-2.252 3.711-2.258l1.214-.237-.804-.938c-.104-.121-3.405-3.264-8.515-1.619-3.574 1.15-6.219 5.05-6.318 5.208l1.791.84c.021-.033 2.112-3.699 5.179-4.685 2.477-.798 4.761-.039 5.739.458-1.04.414-2.4 1.169-3.22 2.46-.388.609-.452 1.377-.514 2.12-.083.984-.163 1.913-.889 2.514l1.927.629zm3.182 14.402s-1.501-1.858-1.946-5.473c-.174-1.424.135-4.233.632-5.313-.09 2.657.587 5.313.587 5.313l.727 5.473z"/><path d="M45.585 10.788c.001-.004.482-2.101 1.816-3.16 1.881-1.493 4.178-.699 4.2-.692l.335-1.028c-.112-.036-2.737-.861-5.157.836-2.435 1.707-2.727 3.254-2.753 3.425l1.558.62zm3.202 14.946s.788-1.125.645-2.363c-.07-.611-.354-1.239-.86-1.461-.942-.411-1.359.653-1.359.653s1.325.326 1.574 3.172z"/><path d="M40.137 27.448l-.05.096s2.456 1.84 4.974-.027c1.349-1 1.221-3.474.807-4.523-1.073.243-1.984.681-2.746 1.192l1.802-1.502 1.094-.309 2.124-.726c.026.162.802 3.789-1.437 6.258-.993 1.096-5.642 3.549-7.849-.645l1.276.191z"/><path d="M40.367 27.718c-1.383 2.101-4.873.9-4.812-1.321 0 0 2.332 1.284 4.392-1.08 1.203-1.379 5.058-5.187 10.286-3.921-3.61.792-8.39 4.083-9.865 6.325zm10.354 5.93c-.333.192-1.507 1.405-1.507 3.219-.001.909.09 5.479.542 8.271-.679.44-1.152.534-1.827.982-.338-3.233-.582-7.919-.468-9.811.129-2.157 1.286-3.604 2.359-4.221l1.042-.573c1.838-.991 3.738-2.016 3.738-3.766 0-1.369-.534-1.798-1.099-2.251l-.061-.049c-.374-.302-.799-.645-1.05-1.207-.686-1.538-.8-5.457-.002-6.452.397-.496 1.464-2.164 1.157-3.283-.117-.428-.388-.745-.826-.97-.465-.238-1.093-.359-1.866-.359-1.518 0-3.203.46-4.071.736-3.105.981-6.851 3.811-7.927 4.657l-.053.04-.688.477.429-.719c.026-.045 2.747-4.511 7.615-6.149.947-.319 2.806-.853 4.635-.853 1.087 0 2.01.189 2.742.562.891.455 1.494 1.181 1.745 2.098.615 2.249-1.386 4.753-1.456 4.834-.235.415-.333 3.434.206 4.643.074.166.278.33.535.538l.267.204c.76.572 1.91 1.438 1.91 3.432 0 2.728-2.772 4.21-4.999 5.398l-1.029.562z"/><path d="M47.414 12.342c-.441-.745-1.569-2.184-4.168-3.449-2.901-1.411-6.258-2.126-9.98-2.128v-.001h-.013v.002c-3.721.002-7.079.719-9.98 2.128-2.598 1.266-3.725 2.704-4.167 3.449l-.189.251 2.225.494.072-.089.037-.082c.034-.147.333-.94 2.814-2.147 2.653-1.291 5.746-1.945 9.195-1.947s6.542.656 9.195 1.947c2.481 1.208 2.782 2 2.816 2.147l.036.082.07.089 2.226-.494-.189-.25z"/><path d="M50.32 12.664c1.192-.987.304-1.902.398-3.023.05-.596.097-1.159.295-1.47 1.097-1.728 3.684-2.252 3.711-2.258l1.214-.237-.804-.938c-.104-.121-3.405-3.264-8.515-1.619-3.574 1.15-6.219 5.05-6.318 5.208l1.791.84c.021-.033 2.112-3.699 5.179-4.685 2.477-.798 4.761-.039 5.739.458-1.04.414-2.4 1.169-3.22 2.46-.388.609-.452 1.377-.514 2.12-.083.984-.163 1.913-.889 2.514l1.927.629z"/><path d="M48.026 12.103l.251-.208c.668-.552.742-1.445.823-2.393.065-.764.131-1.553.541-2.2.753-1.187 1.945-1.928 2.927-2.372-.588-.249-1.693-.619-3.055-.619a7.12 7.12 0 0 0-2.185.338c-2.844.915-4.853 4.221-5.081 4.609l-.085.134-2.12-.994.108-.172c.025-.04 2.685-4.083 6.415-5.283.998-.323 2.001-.485 2.98-.485 3.591 0 5.71 2.136 5.727 2.157l1.006 1.174-1.516.296c-.025.004-2.549.532-3.593 2.177-.172.274-.218.815-.267 1.389-.028.341.043.673.113.996.151.696.308 1.419-.575 2.149l-.076.062-2.333-.764z"/><path d="M45.585 10.788c.001-.004.482-2.101 1.816-3.16 1.881-1.493 4.178-.699 4.2-.692l.335-1.028c-.112-.036-2.737-.861-5.157.836-2.435 1.707-2.727 3.254-2.753 3.425l1.558.62z"/><path d="M43.827 10.282l.021-.141c.026-.178.332-1.796 2.826-3.546a6.16 6.16 0 0 1 3.557-1.1c.987 0 1.683.217 1.76.242l.172.057-.446 1.372-.172-.057c-.064-.021-.645-.207-1.424-.207-1 0-1.876.294-2.602.872-1.275 1.013-1.747 3.038-1.751 3.058l-.045.208-1.887-.751zm7.656-3.57l.222-.683a6.13 6.13 0 0 0-1.475-.174c-1.243 0-2.37.348-3.349 1.035-2.047 1.436-2.537 2.734-2.648 3.166l1.228.488c.161-.57.693-2.159 1.826-3.058.783-.62 1.76-.948 2.829-.948.614 0 1.11.106 1.367.175zM37.638 55.201c-.93-.992-1.48-2.059-1.613-2.387-.076-.187-.163-.543.11-.823.212-.216.581-.328 1.096-.328h.794l2.367.002.482.002c.677 0 1.012.194 1.17.355.234.236.27.564.11.975-.431 1.096-1.407 1.992-1.696 2.24-.378.326-.921.519-1.454.519-.546 0-1.031-.196-1.363-.551zm.805-27.358l1.924-.124s-.492.866-.81 1.985c-.361 1.266.329 3.117.329 3.117s-2.568-2.9-1.445-4.979z"/></g><path d="M33.259 20.983c-1.227 0-2.827-.033-4.027-.894 0 0 1.572 2.749 4.025 2.749l.002-.348.002.348c2.454 0 4.025-2.749 4.025-2.749-1.2.86-2.801.894-4.027.894z" fill="#e78724"/><path d="M36.638 20.97c-1.231.743-2.33 1.001-3.378 1.024-1.049-.023-2.148-.28-3.379-1.024 0 0 1.793 2.183 3.37 2.2v.002h.009c1.586-.015 3.38-2.196 3.38-2.196zm4.208 39.854l-.137-1.78c5.781-.443 7.601-5.97 7.611-6.552h1.791c.002 1.345-2.411 7.807-9.262 8.332z" fill="#463014"/><path d="M42.771 49.248c.107-.618.118-1.203-.013-1.779.522-.391 1.455-.536 2.156-.764.573-.362 3.508.37 5.637-2.2 2.667-3.219 2.105-5.142 2.105-5.142.685.758 1.347.468 2.39 4.004s-.491 6-3.349 8.474c-1.35 1.168-3.26 1.649-4.902 1.834.55-.551-.938-.607-1.965-.99.083-.828-.055-1.63-.673-2.277-.371-.391-.851-.623-1.348-.809l-.078-.185.044-.174z"/><path d="M44.843 52.67c.06-.174.104-.351.148-.529.048-.194.285-.746-.007-.117.075-.161.124-.327.16-.494 4.629-.006 8.657-3.177 7.878-9.845.606-.803 1.455 1.619 1.455 1.619s2.318 6.715-3.668 9.317c-1.994.868-3.757 1.49-4.173 1.239-.867.175-1.649-.427-1.941-.823a4.68 4.68 0 0 0 .149-.367z" fill="#c9c9c9"/><g fill="#463014"><path d="M42.854 48.281a3.7 3.7 0 0 0-.394-1.651l-.062-.11c1.781-.015 3.833-.185 5.58-.883 1.92-.767 4.322-3.389 4.735-6.469 0 0 3.617 2.785 2.554 8.745-.998 5.597-5.691 7.421-11.044 7.73-.003-.036.602-1.283.411-2.046 3.039.221 6.439-.951 8.08-3.645 1.501-2.464 1.08-6.674.463-7.291-1.505 4.742-6.924 5.706-10.322 5.623z"/><path d="M45.016 49.685c-.639-.69-1.815-1.512-4.526-1.512l-7.22-.004h-.017l-7.221.004c-2.71 0-3.886.823-4.525 1.512-.932 1.004-1.078 2.401-.433 4.146 1.713 4.647 4.122 9.367 12.181 9.374v.001h.009c8.068-.004 10.477-4.724 12.191-9.372.645-1.745.499-3.142-.433-4.145zm-1.255 3.82c-.816 2.333-3.01 7.981-10.502 7.991-7.492-.01-9.686-5.657-10.502-7.991-.452-1.294-.417-2.252.106-2.848.357-.407 1.178-.892 3.048-.892l1.954-.001 5.395-.004 5.394.004 1.953.001c1.871 0 2.691.485 3.049.89.522.594.557 1.553.105 2.847z"/><path d="M42.294 44.887c.963 2.821 2.931 5.103 2.931 5.103s-2.706-.124-2.855-.602c-.11-.353-2.443-5.802-3.337-12.187.843 1.381 3.182 7.441 3.265 7.683zm-30.563 22.61c-.361-.217-.764-.407-1.201-.565s-.912-.282-1.424-.372-1.066-.135-1.645-.135c-1.122 0-2.155.167-3.069.498s-1.711.805-2.359 1.404a6.17 6.17 0 0 0-1.508 2.154C.176 71.308 0 72.225 0 73.209c0 .967.185 1.877.55 2.704a6.57 6.57 0 0 0 1.518 2.153c.643.6 1.411 1.079 2.286 1.421S6.192 80 7.219 80c.563 0 1.099-.026 1.588-.081s.964-.14 1.405-.253.86-.262 1.25-.442.77-.394 1.129-.641c.066-.045.104-.119.104-.198v-5.409a.24.24 0 0 0-.24-.24h-4.86a.24.24 0 0 0-.24.24v2.164a.24.24 0 0 0 .24.24h1.747v1.536c-.242.087-.499.157-.766.213-.32.066-.694.1-1.114.1-.541 0-1.048-.092-1.501-.27a3.28 3.28 0 0 1-1.17-.775 3.61 3.61 0 0 1-.777-1.255c-.189-.498-.284-1.079-.284-1.726 0-.585.087-1.121.257-1.594s.414-.875.724-1.208.69-.591 1.131-.774.953-.277 1.513-.277c.31 0 .59.013.836.041a4.53 4.53 0 0 1 .694.134c.219.062.435.142.645.238.219.102 1.239.681 1.475.813.163.091.261.096.371-.057l1.375-2.002a.24.24 0 0 0-.036-.317 6.71 6.71 0 0 0-.974-.713zm12.061 7.532c-.15-.231-.33-.431-.535-.593a3.29 3.29 0 0 0-.199-.146c.28-.129.539-.279.771-.448a4.22 4.22 0 0 0 .915-.891c.25-.334.44-.702.566-1.094s.19-.812.19-1.252c0-.576-.108-1.116-.321-1.608-.216-.499-.565-.936-1.034-1.3-.465-.358-1.067-.639-1.791-.838-.715-.195-1.587-.293-2.591-.293h-4.445a.24.24 0 0 0-.24.24V79.62a.24.24 0 0 0 .24.24h3.171a.24.24 0 0 0 .24-.24v-4.501h.567c.253 0 .388.043.456.079.095.05.181.138.258.263l2.271 3.722c.278.45.732.677 1.348.677h2.878a.24.24 0 0 0 .24-.24c0-.069-.028-.131-.076-.175l-2.878-4.415zm-1.984-3.499c-.074.21-.193.387-.359.544s-.39.283-.658.374c-.276.094-.62.141-1.025.141h-1.034v-3.32h1.036c.758 0 1.318.142 1.664.422.335.27.497.642.497 1.132.002.253-.038.489-.117.706zm17.914-4.964h-3.171a.24.24 0 0 0-.24.24v7.59c0 .423-.057.803-.17 1.132a2.25 2.25 0 0 1-.477.815c-.206.218-.461.39-.762.508a3.16 3.16 0 0 1-2.103 0c-.299-.118-.554-.29-.76-.511s-.367-.499-.478-.821-.168-.708-.168-1.131v-7.581a.24.24 0 0 0-.24-.24h-3.171a.24.24 0 0 0-.24.24v7.589c0 .814.142 1.573.422 2.254a5.05 5.05 0 0 0 1.221 1.782c.528.495 1.178.885 1.931 1.159s1.602.41 2.54.41c.932 0 1.783-.138 2.532-.409s1.401-.664 1.929-1.159.942-1.095 1.225-1.78a5.85 5.85 0 0 0 .425-2.255v-7.589c0-.132-.106-.24-.238-.24zm14.929 0h-2.795a.24.24 0 0 0-.24.24v6.78a11.1 11.1 0 0 0 .019.647l-6.011-7.128a2.59 2.59 0 0 0-.257-.26c-.087-.074-.182-.132-.276-.174s-.2-.068-.318-.083a3.41 3.41 0 0 0-.376-.019h-1.67a.24.24 0 0 0-.24.24v12.813a.24.24 0 0 0 .24.24h2.795c.132 0 .242-.108.242-.24v-6.868a10.98 10.98 0 0 0-.015-.541l5.966 7.07c.181.216.376.37.58.456.199.082.437.123.711.123h1.651a.24.24 0 0 0 .24-.24V66.809c0-.133-.106-.241-.238-.241zm13.109 0H56.9a.24.24 0 0 0-.24.24v2.357a.24.24 0 0 0 .24.24h3.606v10.217a.24.24 0 0 0 .24.24h3.169a.24.24 0 0 0 .24-.24V69.404h3.604a.24.24 0 0 0 .24-.24v-2.357c.002-.132-.108-.24-.24-.24z"/></g></g></symbol></svg>