<svg xmlns="http://www.w3.org/2000/svg" xmlns:xlink="http://www.w3.org/1999/xlink" viewBox="0 0 240.727 150.727" fill="#fff" fill-rule="evenodd" stroke="#000" stroke-linecap="round" stroke-linejoin="round"><use xlink:href="#A" x="1.364" y="1.364"/><symbol id="A" overflow="visible"><path d="M120.417 101.794c-.074-7.091-1.113-14.523-5.062-20.604-3.911-6.019-9.955-10.841-16.827-12.974.693.218 4.091-2.607 4.737-3.071 14.741-10.219 16.11-31.707 8.182-46.647C102.856 2.423 82.399-.272 65.945.02H0v147.253h66.783a106.29 106.29 0 0 0 16.034-1.184c4.385-.674 8.992-2.092 13.091-3.818 7.124-3.068 13.407-8.367 17.845-14.722 5.228-7.489 6.818-16.734 6.693-25.732zm-86.272-76.11h29.231c11.536 0 20.945 1.173 23.056 12.022.485 2.501.66 5.796.076 8.296-.264 1.149-.667 2.262-1.2 3.314-3.055 5.956-7.945 8.673-15.717 8.673H34.145V25.684zm56.062 81.417c-1.756 7.691-7.909 12.633-15.491 13.868-1.74.286-3.567.483-5.332.483h-35.22V82.569l35.782.016c7.95 0 11.896 2.138 15.428 5.531 4.208 4.042 5.681 10.2 5.291 15.856a20.27 20.27 0 0 1-.464 3.128zM154.205 5.764h59.896v15.523h-59.896zm83.067 83.43l-.095-3.486-.284-3.592-.401-3.483-.6-3.491-.78-3.436-.963-3.314-1.2-3.251-.305-.745c-5.877-13.683-17.564-25.364-32.493-28.295-15.873-3.145-34.192-1.855-47.419 8.149-12.6 9.532-19.304 24.954-20.809 40.385-1.874 19.165 6.251 40.124 21.854 51.742 4.126 3.073 8.984 5.542 13.816 7.301 12.529 4.563 26.095 4.636 38.438-.665 12.758-5.509 24.128-15.996 28.977-29.258a16.62 16.62 0 0 0 .235-.709c.109-.349.273-.704.311-1.091.011-.06.019-.123.027-.18.011-.082-.06-.076-.136-.076h-27.049c-.565 0-1.137-.136-1.636.273-.436.36-.78 1.14-1.11 1.636-5.444 7.759-13.478 11.365-22.964 10.364-2.362-.273-4.816-.774-7.058-1.568-4.099-1.451-7.917-4.227-10.454-7.781-2.602-3.649-3.736-8.165-4.309-12.545a39.11 39.11 0 0 1-.316-3.431c-.008-.237.008-.354.104-.409.068-.041.175-.055.341-.055l75.224-.008c.273 0 .565-.218.69-.442.229-.415.229-.955.24-1.418.027-1.211-.014-2.414.063-3.627.063-1.165.071-2.331.025-3.496zm-28.789-9.616h-47.853s1.315-22.014 24.747-22.014 23.073 22.014 23.073 22.014z" fill="#0090ff" stroke="none"/></symbol></svg>