<svg xmlns="http://www.w3.org/2000/svg" xmlns:xlink="http://www.w3.org/1999/xlink" viewBox="0 0 148.829 148.829" fill="#fff" fill-rule="evenodd" stroke="#000" stroke-linecap="round" stroke-linejoin="round"><use xlink:href="#A" x=".915" y=".915"/><symbol id="A" overflow="visible"><g stroke="none"><path d="M138.265 146.341a8.08 8.08 0 0 0 8.076-8.078V8.076A8.08 8.08 0 0 0 138.265 0H8.076C3.615 0 0 3.615 0 8.076v130.189a8.08 8.08 0 0 0 8.076 8.076h130.189z" fill="#3c5a99"/><path d="M99.179 146.199V89.108h18.878l2.826-22.249H99.179V52.652c0-6.439 1.762-10.829 10.86-10.829l11.605-.005V21.915c-2.007-.271-8.896-.878-16.912-.878-16.732 0-28.171 10.368-28.171 29.411v16.409h-18.94v22.249h18.926v57.091h22.634z"/></g></symbol></svg>