<svg xmlns="http://www.w3.org/2000/svg" xmlns:xlink="http://www.w3.org/1999/xlink" viewBox="0 0 146.807 146.807" fill="#fff" fill-rule="evenodd" stroke="#000" stroke-linecap="round" stroke-linejoin="round"><use xlink:href="#B" x=".904" y=".904"/><defs><linearGradient id="A" x1="0%" y1="0%" x2="100%" y2="100%"><stop offset="0%" stop-color="#f78c1d"/><stop offset="81%" stop-color="#f71d6b"/></linearGradient></defs><symbol id="B" overflow="visible"><path d="M12.049 0Q0 0 0 12.049v120.483q0 12.047 12.049 12.047h120.483q12.047 0 12.047-12.049V12.049Q144.578 0 132.53 0z" fill="url(#A)" stroke="none"/><path d="M73.635 37.489l15.604.224c3.764.172 5.81.801 7.171 1.33 1.677.619 3.195 1.606 4.44 2.888 1.352 1.352 2.187 2.639 2.888 4.44.53 1.361 1.157 3.405 1.33 7.171l.226 15.604-.226 15.604c-.172 3.764-.801 5.81-1.33 7.171-.699 1.802-1.536 3.09-2.888 4.44s-2.639 2.187-4.44 2.888c-1.361.53-3.405 1.157-7.171 1.33l-15.604.226c-10.312 0-11.53-.04-15.604-.226-3.764-.172-5.81-.801-7.169-1.33-1.802-.701-3.09-1.536-4.44-2.888s-2.187-2.639-2.888-4.44c-.53-1.361-1.157-3.405-1.33-7.171l-.226-15.604.226-15.604c.172-3.764.801-5.81 1.33-7.171.699-1.802 1.536-3.09 2.888-4.44s2.639-2.187 4.44-2.888c1.361-.528 3.405-1.157 7.169-1.33l15.604-.224m0-6.958l-15.922.235c-4.11.188-6.916.84-9.374 1.795a18.92 18.92 0 0 0-6.839 4.453 18.92 18.92 0 0 0-4.453 6.839c-.954 2.458-1.608 5.263-1.795 9.374l-.231 15.922.231 15.922c.188 4.11.84 6.916 1.795 9.374.987 2.539 2.308 4.693 4.453 6.839a18.92 18.92 0 0 0 6.839 4.453c2.458.954 5.263 1.608 9.374 1.795l15.922.231 15.922-.231c4.11-.188 6.916-.84 9.374-1.795a18.92 18.92 0 0 0 6.839-4.453 18.92 18.92 0 0 0 4.453-6.839c.954-2.458 1.608-5.263 1.795-9.374l.235-15.922-.235-15.922c-.188-4.11-.84-6.916-1.795-9.374a18.92 18.92 0 0 0-4.453-6.839 18.92 18.92 0 0 0-6.839-4.453c-2.458-.954-5.263-1.608-9.374-1.795l-15.922-.235zm0 18.786c-10.952 0-19.829 8.877-19.829 19.829s8.877 19.829 19.829 19.829 19.829-8.879 19.829-19.831a19.83 19.83 0 0 0-19.829-19.825zm0 32.7c-7.11 0-12.871-5.765-12.871-12.871s5.765-12.871 12.871-12.871 12.871 5.765 12.871 12.871-5.765 12.871-12.871 12.871zm25.247-33.484c0 2.559-2.075 4.634-4.634 4.634s-4.634-2.075-4.634-4.634 2.075-4.634 4.634-4.634 4.634 2.075 4.634 4.634z" stroke="#fff" stroke-width="1.807"/></symbol></svg>