<svg xmlns="http://www.w3.org/2000/svg" xmlns:xlink="http://www.w3.org/1999/xlink" viewBox="0 0 150.786 150.786" fill="#fff" fill-rule="evenodd" stroke="#000" stroke-linecap="round" stroke-linejoin="round"><use xlink:href="#A" x=".893" y=".893"/><symbol id="A" overflow="visible"><path d="M74.107 0C33.179 0 0 33.179 0 74.107s33.179 74.107 74.107 74.107 74.107-33.179 74.107-74.107S115.036 0 74.107 0zm55.848 42.961c2.632 4.702 4.646 9.714 6.007 14.934h-24.914a89.27 89.27 0 0 0-4.07-14.934h22.977zm-25.748 41.798l-6.979-21.273 4.454-1.968 4.964 16.564 3.845-10.577h4.9l3.845 10.577 4.964-16.564 4.454 1.968-6.979 21.273-4.384 1.938-4.348-14.513-4.348 14.513-4.384-1.937zm.521 5.563a82.53 82.53 0 0 1-4.389 14.866H77.211V90.322h27.518zm14.577-61.411a64.52 64.52 0 0 1 6.684 7.846h-21.575a85.92 85.92 0 0 0-17.746-25.339c12.286 2.436 23.58 8.439 32.637 17.496zM77.211 11.232c8.732 7.261 15.496 15.988 20.298 25.521H77.211V11.232zm0 31.727h23.104c1.946 4.843 3.418 9.846 4.416 14.934H77.212V42.959zm-6.207-31.648v25.443H50.8a79.75 79.75 0 0 1 20.204-25.443zM43.579 57.893c1-5.086 2.468-10.089 4.416-14.934h23.009v14.934H43.579zm7.407 5.593l-6.979 21.273-4.384 1.938-4.348-14.513-4.348 14.513-4.384-1.937-6.979-21.273 4.452-1.968 4.964 16.564 3.845-10.577h4.9l3.845 10.577 4.964-16.564 4.454 1.968zM28.911 28.911c9.084-9.084 20.421-15.096 32.75-17.5-7.596 7.479-13.518 16.1-17.768 25.363H22.225a64.8 64.8 0 0 1 6.684-7.846zM18.263 42.964h23.071a89.2 89.2 0 0 0-4.07 14.934H12.254a63.16 63.16 0 0 1 6.007-14.934zm-.036 62.227a63.18 63.18 0 0 1-5.97-14.866h25.007c.916 5.048 2.263 10.025 4.043 14.866H18.223zm10.686 14.118a64.78 64.78 0 0 1-6.734-7.912h21.688a85.58 85.58 0 0 0 17.798 25.428c-12.33-2.419-23.668-8.432-32.75-17.518zm42.096 17.598a79.75 79.75 0 0 1-20.243-25.514h20.239v25.511zm0-31.714H47.973a82.97 82.97 0 0 1-4.389-14.866h27.429v14.866zm3.068-33.004l-4.348 14.513-4.384-1.937-6.979-21.273 4.454-1.968 4.964 16.564 3.845-10.577h4.9l3.845 10.577 4.964-16.564 4.454 1.968-6.979 21.273-4.384 1.938-4.348-14.513zm3.134 64.775v-25.572h20.332c-4.821 9.561-11.58 18.311-20.332 25.589zm42.096-17.678c-9.054 9.053-20.35 15.061-32.636 17.495 7.604-7.491 13.529-16.13 17.777-25.411h21.593a65.04 65.04 0 0 1-6.732 7.914zm10.686-14.118h-22.989c1.78-4.839 3.125-9.822 4.043-14.866h24.914a63.16 63.16 0 0 1-5.97 14.866z" fill="#00679b" stroke="none"/></symbol></svg>