<svg xmlns="http://www.w3.org/2000/svg" xmlns:xlink="http://www.w3.org/1999/xlink" viewBox="0 0 160.586 150.586" fill="#fff" fill-rule="evenodd" stroke="#000" stroke-linecap="round" stroke-linejoin="round"><use xlink:href="#A" x="1.293" y="1.293"/><symbol id="A" overflow="visible"><path d="M19.231 0c4.914 0 8.759 1.629 11.553 4.862s4.293 7.324 4.495 12.22c0 4.836-1.57 8.915-4.733 12.228s-7.484 4.966-12.949 4.966h-.194c-5.338 0-9.564-1.655-12.711-4.966C1.552 26.002 0 21.921 0 17.087 0 12.114 1.715 8.028 5.172 4.81S13.324 0 19.231 0zM2.069 47.855h33.724v99.551H2.069V47.855zm155.69 42.473v57.078h-33.724V94.138c0-6.776-1.327-12.199-3.962-16.329-2.622-4.094-6.983-6.145-13.203-6.145-4.717 0-8.509 1.257-11.328 3.783-2.832 2.509-4.883 5.289-6.122 8.338-.403 1.104-.657 2.323-.791 3.678-.129 1.332-.186 2.778-.186 4.298v55.653H54.512l.222-46.311V67.327l-.129-12.538-.093-6.931h33.931v14.095l-.186.409h.186v-.409c1.053-1.733 2.397-3.543 4.04-5.441 1.663-1.888 3.652-3.662 6.072-5.296 2.397-1.619 5.286-2.948 8.672-4.035 3.406-1.068 7.283-1.595 11.697-1.595 5.488 0 10.616.879 15.398 2.638 4.769 1.764 8.866 4.526 12.352 8.294 3.466 3.745 6.181 8.405 8.154 13.976 1.966 5.555 2.93 12.168 2.93 19.836z" fill="#00679b" stroke="none"/></symbol></svg>