<svg xmlns="http://www.w3.org/2000/svg" xmlns:xlink="http://www.w3.org/1999/xlink" viewBox="0 0 146.807 146.807" fill="#fff" fill-rule="evenodd" stroke="#000" stroke-linecap="round" stroke-linejoin="round"><use xlink:href="#A" x=".904" y=".904"/><symbol id="A" overflow="visible"><g stroke="none"><path d="M12.049 0Q0 0 0 12.049v120.483q0 12.047 12.049 12.047h120.483q12.047 0 12.047-12.049V12.049Q144.578 0 132.53 0z" fill="#1ab7ea"/><path d="M88.603 58.771c1.066-.784 1.843-1.955 1.955-3.307.108-1.247-.524-2.579-1.327-3.519-1.247-1.457-2.812-2.765-4.413-3.826-.931-.614-1.934-1.171-2.958-1.627-2.597-1.149-5.452-1.722-8.29-1.8-1.567-.043-3.195.005-4.749.217-4.278.578-8.602 1.767-11.716 4.887-.781.781-1.504 1.663-2.12 2.579-.736 1.092-1.301 2.281-1.627 3.557-.795 3.137-.356 7.182 1.523 9.853 2.241 3.186 6.108 4.874 9.777 5.879 2.286.625 4.617.929 6.936 1.386l4.128.976c1.69.497 3.708 1.139 4.771 2.626 1.852 2.584.846 6.282-1.802 7.843-2.675 1.579-6.267 1.946-9.217 1.048-1.587-.479-3.112-1.175-4.381-2.248-1.446-1.224-2.295-2.928-3.658-4.222-1.422-1.35-4.043-2.255-5.933-1.392-3.13 1.446-3.065 6.132-1.265 8.548.712.947 1.659 1.937 2.602 2.657 5.308 4.039 12.665 4.708 19.135 4.271 1.898-.127 3.931-.392 5.743-.998 4.017-1.345 7.916-3.799 9.633-8.064s1.182-7.771.416-10.052c-1.722-5.107-7.102-7.298-11.892-8.541-1.149-.298-2.308-.566-3.47-.808l-6.578-1.374c-2.313-.428-5.747-1.03-6.289-3.783-.519-2.644 1.211-5.288 3.62-6.204 2.693-1.023 5.946-.907 8.599.175 1.41.575 3.103 1.457 4.216 2.507 1.867 1.76 3.506 4.327 6.488 3.698.77-.167 1.499-.489 2.142-.945z"/></g><path d="M114.132 79.228c-.488-1.043-1.088-2.035-1.822-2.955-.542-.68-.141-1.699.029-2.44 1.271-5.521.638-11.283-.683-16.735a31.32 31.32 0 0 0-1.453-4.529c-2.373-5.783-6.054-11.373-10.608-15.661-2.507-2.362-5.445-4.518-8.467-6.181-4.672-2.566-9.737-4.026-15.014-4.666-2.299-.278-4.608-.575-6.929-.533-1.162.022-2.322.121-3.461.354-.994.202-2.102.656-3.099.22-1.861-.813-3.712-1.717-5.686-2.227-1.428-.369-2.915-.531-4.377-.678-4.019-.403-7.934.278-11.675 1.798-2.639 1.072-5.037 2.718-7.175 4.59-2.808 2.458-5.21 6.555-6.307 10.12-1.157 3.728-1.775 7.836-1.054 11.705.334 1.789.896 3.535 1.617 5.205.302.705.723 1.346 1.023 2.049.32.746.168 1.283-.025 2.042-.654 2.581-.687 5.353-.663 8.001.063 6.347 1.603 13.034 4.392 18.719 2.832 5.776 6.936 10.974 12.21 14.693 5.208 3.672 11.03 6.405 17.306 7.608 3.501.669 7.012.338 10.511-.159 1.518-.217 4.634-1.157 6.027-.163 0 0 13.843 9.999 28.576-2.935 4.373-3.842 7.569-9.367 8.295-15.188.501-4.017.235-8.349-1.486-12.042z" fill="none" stroke="#fff" stroke-miterlimit="10" stroke-width="7.229"/></symbol></svg>