<svg xmlns="http://www.w3.org/2000/svg" xmlns:xlink="http://www.w3.org/1999/xlink" viewBox="0 0 187.273 150.273" fill="#fff" fill-rule="evenodd" stroke="#000" stroke-linecap="round" stroke-linejoin="round"><use xlink:href="#A" x="1.136" y="1.136"/><symbol id="A" overflow="visible"><path d="M57.893 147.727c69.473 0 107.464-56.83 107.464-106.109 0-1.591-.034-3.22-.107-4.818 7.375-5.264 13.784-11.834 18.864-19.311-6.793 2.966-14.075 4.966-21.714 5.868 7.795-4.618 13.784-11.92 16.609-20.627a76.32 76.32 0 0 1-23.984 9.052C148.134 4.534 138.32 0 127.452 0 106.595 0 89.68 16.705 89.68 37.289c0 2.927.332 5.773.977 8.505-30.276-1.456-58.538-15.602-77.848-38.966A36.84 36.84 0 0 0 7.695 25.57c0 12.939 6.668 24.364 16.807 31.045-6.198-.189-12.018-1.868-17.105-4.664-.005.159-.005.309-.005.455 0 18.061 13.018 33.141 30.3 36.557a38.27 38.27 0 0 1-9.959 1.314c-2.382-.001-4.758-.227-7.098-.673 4.809 14.818 18.75 25.6 35.282 25.902-12.927 10.005-29.211 15.964-46.909 15.964-3.045 0-6.052-.17-9.009-.516 16.714 10.598 36.561 16.773 57.893 16.773" fill="#1ab7ea" stroke="none"/></symbol></svg>