<svg xmlns="http://www.w3.org/2000/svg" xmlns:xlink="http://www.w3.org/1999/xlink" viewBox="0 0 209.459 150.459" fill="#fff" fill-rule="evenodd" stroke="#000" stroke-linecap="round" stroke-linejoin="round"><use xlink:href="#A" x="1.229" y="1.229"/><symbol id="A" overflow="visible"><path d="M142.082.577C122.317-.011 102.541-.15 82.77.162 26.798 1.239 3.312.368.491 43.962-.116 62.405-.16 80.803.359 99.24c2.793 47.533 17.852 46.657 82.411 48.14 18.029.284 36.063.194 54.089-.271 45.411-1.266 66.534-.147 69.337-47.894.516-18.428.475-36.819-.133-55.254C203.257.196 178.9 1.64 142.082.577zM82.295 100.949l.03-59.299 54.826 29.661-54.856 29.638z" fill="#cc2124" stroke="none"/></symbol></svg>